<?xml version="1.0" encoding="UTF-8"?>
<svg version="1.1" xmlns="http://www.w3.org/2000/svg" width="690" height="362">
<path d="M0 0 C1.41628419 -0.00407987 2.83256519 -0.00942958 4.24884033 -0.01593018 C8.04644035 -0.02944175 11.843792 -0.02437314 15.64139557 -0.01479292 C19.64619029 -0.00711134 23.65096602 -0.0142652 27.65576172 -0.01895142 C34.37666579 -0.02438454 41.09747045 -0.01728201 47.81835938 -0.00292969 C55.55000974 0.01339211 63.28142263 0.00810186 71.01306725 -0.0084089 C77.69297481 -0.02209393 84.37281157 -0.0239094 91.05272865 -0.0160929 C95.02410388 -0.01145466 98.99536808 -0.01068379 102.96673584 -0.02070236 C106.70326408 -0.02947286 110.439491 -0.02316984 114.17598724 -0.00601959 C116.17324936 -0.00026611 118.17053745 -0.00898333 120.16778564 -0.0184021 C138.17314085 0.10569329 153.60621131 4.205463 166.91796875 17.02099609 C180.1063932 31.11656085 182.28444588 46.98279941 182.27807617 65.52416992 C182.28107266 66.94590848 182.28447631 68.36764623 182.28825378 69.78938293 C182.29704801 73.63250481 182.29942996 77.47560439 182.30006957 81.31873536 C182.30078266 83.72497616 182.30292187 86.13121138 182.30556679 88.53745079 C182.31480498 96.94676444 182.31890358 105.3560623 182.31811523 113.76538086 C182.31751482 121.58041401 182.32806352 129.39537805 182.3438589 137.21039373 C182.35697186 143.94018622 182.36229756 150.66995622 182.36165982 157.39976138 C182.36140595 161.41022246 182.36419596 165.42062207 182.37483788 169.43107033 C182.38458238 173.20599703 182.38455494 176.98080426 182.37732124 180.7557354 C182.37579208 182.78485575 182.38407748 184.81397626 182.39276123 186.84307861 C182.33307275 204.37508402 178.02900151 219.67955816 166.1328125 232.95068359 C155.12058008 243.40255905 139.96221937 248.48621721 124.96949768 248.52862549 C123.14694206 248.5371907 123.14694206 248.5371907 121.28756714 248.54592896 C119.9541627 248.5471741 118.62075815 248.54829924 117.28735352 248.54931641 C115.87239962 248.5539498 114.45744696 248.55897515 113.04249573 248.56436157 C109.20725589 248.5774431 105.37203352 248.58392298 101.53677487 248.58837223 C99.13419886 248.59131168 96.73162752 248.59541824 94.32905388 248.5998764 C86.79360527 248.61354424 79.25816747 248.62321266 71.72270733 248.62707829 C63.05930101 248.63154824 54.3960533 248.64904948 45.73269516 248.67807889 C39.01477003 248.69979804 32.29688918 248.70978811 25.57892936 248.71111941 C21.57721622 248.71216076 17.57565231 248.71792313 13.57397652 248.73593903 C9.80066556 248.75259626 6.02761314 248.75449117 2.25427818 248.74580002 C0.23543772 248.74468028 -1.78339485 248.75826307 -3.80218506 248.77255249 C-21.85057009 248.69151979 -37.30749278 244.60276409 -50.65234375 231.75537109 C-64.06784366 217.41711193 -66.01904564 201.18644621 -66.01245117 182.33813477 C-66.01544873 180.93757539 -66.01885262 179.53701684 -66.02262878 178.13645935 C-66.03141198 174.35531096 -66.03380448 170.57418525 -66.03444457 166.79302764 C-66.03515827 164.4244633 -66.0372986 162.05590462 -66.03994179 159.68734169 C-66.04917617 151.40654768 -66.05327904 143.12576969 -66.05249023 134.8449707 C-66.05188985 127.15433627 -66.06243895 119.46377206 -66.0782339 111.77315539 C-66.09135431 105.14608629 -66.09667225 98.51904003 -66.09603482 91.89195806 C-66.09578117 87.94463679 -66.09855841 83.99737802 -66.10921288 80.05006981 C-66.11897011 76.33422202 -66.11892143 72.61849553 -66.11169624 68.9026432 C-66.11017009 66.90831532 -66.11844337 64.91398725 -66.12713623 62.91967773 C-66.09147737 52.58943997 -65.20996547 42.74438288 -61.2421875 33.13818359 C-60.57316406 31.49076172 -60.57316406 31.49076172 -59.890625 29.81005859 C-59.55289063 29.01083984 -59.21515625 28.21162109 -58.8671875 27.38818359 C-58.2071875 27.38818359 -57.5471875 27.38818359 -56.8671875 27.38818359 C-56.7125 26.51613281 -56.7125 26.51613281 -56.5546875 25.62646484 C-53.84418037 16.80191607 -42.89903362 9.89198699 -35.2421875 5.63818359 C-24.14974819 0.53398412 -12.01868738 -0.05667862 0 0 Z M30.1328125 30.38818359 C29.05773437 30.72849609 27.98265625 31.06880859 26.875 31.41943359 C18.52301657 34.34164056 11.50951539 38.59733579 4.1328125 43.38818359 C3.24207031 43.92056641 2.35132813 44.45294922 1.43359375 45.00146484 C-1.21482255 46.59770896 -3.55245389 48.33799096 -5.8671875 50.38818359 C-5.8671875 51.04818359 -5.8671875 51.70818359 -5.8671875 52.38818359 C-6.43695313 52.62279297 -7.00671875 52.85740234 -7.59375 53.09912109 C-18.92700392 59.5251929 -27.25172384 74.90329789 -31.7890625 86.69677734 C-33.30756919 90.48754224 -35.05841234 94.16050315 -36.81640625 97.84521484 C-37.85745772 100.36463681 -38.42868388 102.70415597 -38.8671875 105.38818359 C-34.32211651 104.32003741 -29.91362092 102.82746481 -25.46875 101.40771484 C-21.92089259 100.40338644 -18.43865612 99.80361067 -14.8046875 99.20068359 C-10.41449788 98.29756078 -10.41449788 98.29756078 -7.234375 95.37646484 C-6.20126658 93.06153671 -5.49033896 90.84211108 -4.8671875 88.38818359 C-4.4546875 87.37755859 -4.0421875 86.36693359 -3.6171875 85.32568359 C-3.3696875 84.68630859 -3.1221875 84.04693359 -2.8671875 83.38818359 C-2.2071875 83.38818359 -1.5471875 83.38818359 -0.8671875 83.38818359 C0.44206987 81.5979754 0.44206987 81.5979754 1.7578125 79.32568359 C4.91132065 74.42193988 8.59091486 70.98494646 13.1328125 67.38818359 C13.91914063 66.72560547 14.70546875 66.06302734 15.515625 65.38037109 C19.99301194 61.97221089 25.04994656 59.75618544 30.1328125 57.38818359 C31.17308594 56.90285156 31.17308594 56.90285156 32.234375 56.40771484 C46.45215287 50.44834838 66.58817185 50.08446721 81.00390625 55.45849609 C81.70644531 55.76529297 82.40898437 56.07208984 83.1328125 56.38818359 C81.25819148 70.69006759 70.45730807 84.47006606 59.61328125 93.54833984 C47.44627902 102.57299819 36.35027348 108.69082237 21.01171875 108.38037109 C19.65789171 108.36019551 18.30404939 108.34102562 16.95019531 108.32275391 C16.25430298 108.31232056 15.55841064 108.30188721 14.84143066 108.2911377 C-3.46484452 108.05269068 -21.5031976 109.10051365 -37.8671875 118.38818359 C-39.73081642 120.25181251 -39.04117795 123.27202261 -39.0546875 125.76318359 C-38.99603847 132.21457686 -38.37453957 138.12487585 -36.8671875 144.38818359 C-36.62226563 145.45423828 -36.37734375 146.52029297 -36.125 147.61865234 C-32.45851909 161.97633202 -25.5479798 174.77877772 -16.2421875 186.26318359 C-15.07816406 187.71337891 -15.07816406 187.71337891 -13.890625 189.19287109 C-12.88902344 190.27955078 -12.88902344 190.27955078 -11.8671875 191.38818359 C-11.2071875 191.38818359 -10.5471875 191.38818359 -9.8671875 191.38818359 C-9.6609375 191.94505859 -9.4546875 192.50193359 -9.2421875 193.07568359 C-7.29035718 196.35830731 -4.92487756 198.09491605 -1.8671875 200.38818359 C-1.2071875 200.38818359 -0.5471875 200.38818359 0.1328125 200.38818359 C0.1328125 201.04818359 0.1328125 201.70818359 0.1328125 202.38818359 C15.83268441 215.44200968 39.02039969 221.80688835 59.0078125 221.70068359 C60.57946167 221.69657471 60.57946167 221.69657471 62.18286133 221.69238281 C71.82614811 221.56230049 80.18473438 220.09639615 89.1328125 216.38818359 C85.65545224 212.60783737 85.65545224 212.60783737 81.1328125 210.38818359 C81.1328125 209.72818359 81.1328125 209.06818359 81.1328125 208.38818359 C79.22974605 206.5936055 77.20741162 204.98417013 75.17578125 203.33740234 C73.1328125 201.38818359 73.1328125 201.38818359 71.99609375 198.66552734 C70.3994034 196.20697706 70.3994034 196.20697706 68.11010742 196.03833008 C65.43695788 196.00276536 62.8018327 196.1113331 60.1328125 196.26318359 C48.16962439 196.59788187 39.58563596 194.24806142 28.6640625 189.37646484 C26.11994307 188.20633628 26.11994307 188.20633628 23.1328125 188.38818359 C23.1328125 187.72818359 23.1328125 187.06818359 23.1328125 186.38818359 C22.52953125 186.07365234 21.92625 185.75912109 21.3046875 185.43505859 C16.9824934 183.12059336 13.49375471 181.01800118 10.1328125 177.38818359 C9.4728125 177.38818359 8.8128125 177.38818359 8.1328125 177.38818359 C8.1328125 176.72818359 8.1328125 176.06818359 8.1328125 175.38818359 C6.48792956 173.70001426 4.81943708 172.03465044 3.1328125 170.38818359 C2.4728125 169.39818359 1.8128125 168.40818359 1.1328125 167.38818359 C0.4728125 167.38818359 -0.1871875 167.38818359 -0.8671875 167.38818359 C-0.9496875 166.85193359 -1.0321875 166.31568359 -1.1171875 165.76318359 C-1.79777712 163.2171474 -1.79777712 163.2171474 -3.6796875 160.70068359 C-8.89405666 152.80463886 -10.98734132 144.60227812 -12.8671875 135.38818359 C9.43914816 132.38922069 31.0447173 134.05331785 49.90576172 147.66796875 C56.8988104 153.17966166 62.15924919 159.38121416 66.1328125 167.38818359 C66.64328125 168.40525391 67.15375 169.42232422 67.6796875 170.47021484 C68.71541672 172.54936435 69.74807327 174.63004792 70.77734375 176.71240234 C75.16434456 185.37262008 81.91820456 193.87669422 89.1328125 200.38818359 C89.7928125 200.38818359 90.4528125 200.38818359 91.1328125 200.38818359 C91.1328125 201.04818359 91.1328125 201.70818359 91.1328125 202.38818359 C91.7928125 202.38818359 92.4528125 202.38818359 93.1328125 202.38818359 C93.1328125 203.04818359 93.1328125 203.70818359 93.1328125 204.38818359 C94.77614754 205.42607941 96.44525117 206.42386283 98.1328125 207.38818359 C98.7928125 208.04818359 99.4528125 208.70818359 100.1328125 209.38818359 C106.56315935 209.38818359 111.29542938 206.52354286 116.1328125 202.38818359 C116.1328125 201.72818359 116.1328125 201.06818359 116.1328125 200.38818359 C117.215625 200.04787109 117.215625 200.04787109 118.3203125 199.70068359 C121.69713667 198.12483231 123.69048289 196.17941743 126.1328125 193.38818359 C126.1328125 192.72818359 126.1328125 192.06818359 126.1328125 191.38818359 C126.68582031 191.18064453 127.23882812 190.97310547 127.80859375 190.75927734 C141.09003102 182.92434544 148.88454305 162.27456541 152.6328125 148.13818359 C157.61099894 127.76449463 156.15590584 106.75953064 148.1328125 87.38818359 C147.82472656 86.62119141 147.51664063 85.85419922 147.19921875 85.06396484 C143.02472232 75.13870984 137.07392583 65.61121425 130.1328125 57.38818359 C129.4728125 57.38818359 128.8128125 57.38818359 128.1328125 57.38818359 C128.1328125 56.72818359 128.1328125 56.06818359 128.1328125 55.38818359 C125.66954538 53.7435162 125.66954538 53.7435162 123.1328125 52.38818359 C121.72115946 55.74840046 120.64492242 59.04289881 119.7578125 62.57568359 C118.73753374 66.51332193 117.43941433 70.06255326 115.7578125 73.76318359 C114.11955506 77.4694834 114.11955506 77.4694834 115.2578125 81.32568359 C115.8765625 82.00630859 116.4953125 82.68693359 117.1328125 83.38818359 C117.7928125 84.37818359 118.4528125 85.36818359 119.1328125 86.38818359 C119.7928125 86.38818359 120.4528125 86.38818359 121.1328125 86.38818359 C121.535 87.65662109 121.535 87.65662109 121.9453125 88.95068359 C123.06669614 92.37938521 123.06669614 92.37938521 124.5703125 95.51318359 C128.49948282 104.61754034 129.66662766 113.92757161 129.5703125 123.76318359 C129.55895264 125.40226685 129.55895264 125.40226685 129.54736328 127.07446289 C129.28980668 139.72763602 126.46514482 155.05585127 117.1328125 164.38818359 C117.1328125 165.37818359 117.1328125 166.36818359 117.1328125 167.38818359 C116.4728125 167.38818359 115.8128125 167.38818359 115.1328125 167.38818359 C113.84636048 168.91642336 113.84636048 168.91642336 112.6328125 170.82568359 C110.34127171 174.28395399 110.34127171 174.28395399 108.1328125 175.38818359 C108.1328125 176.04818359 108.1328125 176.70818359 108.1328125 177.38818359 C105.6578125 178.37818359 105.6578125 178.37818359 103.1328125 179.38818359 C102.6790625 178.72818359 102.2253125 178.06818359 101.7578125 177.38818359 C100.9534375 176.39818359 100.9534375 176.39818359 100.1328125 175.38818359 C99.4728125 175.38818359 98.8128125 175.38818359 98.1328125 175.38818359 C97.72869141 174.29763672 97.72869141 174.29763672 97.31640625 173.18505859 C96.15801966 170.44774903 94.798808 168.13523003 93.1953125 165.63818359 C90.37036101 161.00306902 88.61604115 156.58392469 87.1328125 151.38818359 C86.86597656 150.56189453 86.59914063 149.73560547 86.32421875 148.88427734 C81.02806647 132.28628814 81.70882109 114.26654245 89.1328125 98.38818359 C90.1328125 97.38818359 91.1328125 96.38818359 92.1328125 95.38818359 C92.1328125 94.39818359 92.1328125 93.40818359 92.1328125 92.38818359 C92.7928125 92.38818359 93.4528125 92.38818359 94.1328125 92.38818359 C102.03103071 79.49233352 114.10342504 58.15741649 111.1328125 42.38818359 C105.57205131 37.51198581 97.92679168 34.71602086 91.0703125 32.07568359 C90.13541992 31.71228882 90.13541992 31.71228882 89.18164062 31.34155273 C79.09480686 27.66287095 68.98170855 27.02579303 58.3203125 27.07568359 C56.46200806 27.08305542 56.46200806 27.08305542 54.56616211 27.09057617 C46.0289247 27.20022257 38.29172849 27.70461441 30.1328125 30.38818359 Z " fill="#E43529" transform="translate(286.8671875,56.61181640625)"/>
<path d="M0 0 C0.33 0 0.66 0 1 0 C1.125 7.625 1.125 7.625 0 11 C-0.09377059 13.0651289 -0.12629487 15.13321338 -0.12698364 17.20046997 C-0.12980347 18.49892853 -0.13262329 19.79738708 -0.13552856 21.13519287 C-0.13358421 22.57727065 -0.13153604 24.01934829 -0.12939453 25.46142578 C-0.13074928 26.97746828 -0.13252963 28.49351046 -0.13470459 30.009552 C-0.13926939 34.12915301 -0.13749347 38.24872902 -0.1343255 42.36833048 C-0.13179792 46.67335993 -0.13414047 50.97838721 -0.13571167 55.28341675 C-0.1375318 62.51137681 -0.13513072 69.73932665 -0.13037109 76.96728516 C-0.12492466 85.33509263 -0.12669452 93.70287576 -0.1321975 102.07068264 C-0.13672816 109.24607303 -0.13737953 116.42145606 -0.13475883 123.59684741 C-0.13319633 127.88650021 -0.13300165 132.17614154 -0.13629532 136.46579361 C-0.13917349 140.49585746 -0.13719935 144.52588974 -0.13140106 148.55595016 C-0.13007335 150.03908485 -0.13046777 151.52222218 -0.13266373 153.00535583 C-0.13537465 155.02140206 -0.13138092 157.03745406 -0.12698364 159.05349731 C-0.12660662 160.18432802 -0.12622959 161.31515873 -0.12584114 162.48025703 C-0.28556786 164.9380842 -0.28556786 164.9380842 1 166 C1.2165625 167.7015625 1.2165625 167.7015625 1.4375 169.4375 C1.64847551 173.04058997 1.64847551 173.04058997 4 175 C4.125 177.625 4.125 177.625 4 180 C4.99 180.33 5.98 180.66 7 181 C7.625 183.375 7.625 183.375 8 186 C7.01 186.99 7.01 186.99 6 188 C-1.47554208 173.68363168 -3.15085353 161.92688264 -3.14526367 145.94995117 C-3.14826123 144.5493918 -3.15166512 143.14883325 -3.15544128 141.74827576 C-3.16422448 137.96712737 -3.16661698 134.18600165 -3.16725707 130.40484405 C-3.16797077 128.03627971 -3.1701111 125.66772102 -3.17275429 123.2991581 C-3.18198867 115.01836408 -3.18609154 106.7375861 -3.18530273 98.45678711 C-3.18470235 90.76615268 -3.19525145 83.07558847 -3.2110464 75.3849718 C-3.22416681 68.7579027 -3.22948475 62.13085643 -3.22884732 55.50377446 C-3.22859367 51.55645319 -3.23137091 47.60919442 -3.24202538 43.66188622 C-3.25178261 39.94603843 -3.25173393 36.23031194 -3.24450874 32.51445961 C-3.24298259 30.52013173 -3.25125587 28.52580366 -3.25994873 26.53149414 C-3.22858275 17.4448861 -2.29599609 8.80146362 0 0 Z " fill="#E57572" transform="translate(224,93)"/>
<path d="M0 0 C1.42218199 -0.00271646 2.84436256 -0.00628105 4.26654053 -0.01062012 C8.09711975 -0.01966854 11.92759017 -0.01623132 15.75817108 -0.00986195 C19.78621187 -0.00476256 23.81424396 -0.00950427 27.84228516 -0.01263428 C34.60385798 -0.01626252 41.36538697 -0.01150491 48.12695312 -0.00195312 C55.9199023 0.00892922 63.71274679 0.00540283 71.50569344 -0.00560594 C78.22281344 -0.01471146 84.93990211 -0.01594818 91.65702629 -0.0107286 C95.65737496 -0.00762679 99.65767459 -0.00714992 103.65802002 -0.01380157 C107.42068581 -0.01962215 111.18321794 -0.01549293 114.94586945 -0.00401306 C116.96779705 -0.00015104 118.9897361 -0.00601172 121.01165771 -0.01226807 C128.39904131 0.02166738 135.31147668 0.63036738 142.5234375 2.25878906 C139.43534055 4.02341589 138.29031614 4.25878906 134.5234375 4.25878906 C134.5234375 3.59878906 134.5234375 2.93878906 134.5234375 2.25878906 C114.79141591 2.36601709 95.05943334 2.47877654 75.32748127 2.59812832 C66.16568075 2.6534158 57.00387634 2.70689045 47.84204102 2.75610352 C39.8569665 2.79900017 31.87192013 2.84529198 23.88688916 2.89566761 C19.65855786 2.92222439 15.43023199 2.94707632 11.20186806 2.96786308 C7.22187674 2.98748247 3.24193878 3.01164197 -0.73800468 3.03927994 C-2.19848407 3.04862233 -3.65897515 3.05630764 -5.1194725 3.06220818 C-7.11459938 3.07051718 -9.10969574 3.08538234 -11.1047821 3.10057068 C-12.22107341 3.10702323 -13.33736471 3.11347578 -14.48748302 3.12012386 C-17.45450429 3.16656405 -17.45450429 3.16656405 -20.18729877 3.89367771 C-22.4765625 4.25878906 -22.4765625 4.25878906 -25.4765625 2.25878906 C-16.93314643 0.329732 -8.73691743 -0.02703429 0 0 Z " fill="#CB5B51" transform="translate(286.4765625,56.7412109375)"/>
<path d="M0 0 C2.31 0 4.62 0 7 0 C1.07803274 5.92196726 -13.30491611 5.34741969 -21.13165283 5.3732605 C-23.09857086 5.35708176 -23.09857086 5.35708176 -25.10522461 5.34057617 C-26.54584231 5.33972703 -27.98646129 5.34021062 -29.42707825 5.34190369 C-33.28568897 5.34275388 -37.14401191 5.32528917 -41.00255656 5.30418181 C-45.05438775 5.28524953 -49.10622772 5.28365168 -53.15809631 5.28010559 C-60.80750837 5.27083321 -68.45678965 5.24628556 -76.10614449 5.21605712 C-84.82456669 5.18236215 -93.5429956 5.1659894 -102.26146686 5.15097082 C-120.17438499 5.11973089 -138.08718193 5.06706542 -156 5 C-156.33 4.34 -156.66 3.68 -157 3 C-156.23816941 2.99576806 -155.47633883 2.99153612 -154.69142246 2.98717594 C-136.18137943 2.8840131 -117.67137581 2.77539721 -99.16140079 2.66066074 C-90.21023445 2.60530823 -81.25906412 2.55182296 -72.30786133 2.50268555 C-64.50887109 2.45986849 -56.70991044 2.41359686 -48.91096586 2.36312145 C-44.77889552 2.33650047 -40.64683113 2.31164698 -36.51472664 2.29092598 C-32.62995598 2.27139079 -28.74524174 2.24725658 -24.86052132 2.21950912 C-23.43061341 2.2101221 -22.00069311 2.2024528 -20.57076645 2.19658089 C-18.62678863 2.18834775 -16.68284219 2.17348212 -14.73890686 2.15821838 C-13.64842576 2.15176583 -12.55794466 2.14531328 -11.43441868 2.1386652 C-9.05204321 2.27396009 -9.05204321 2.27396009 -8 1 C-5.30917128 1.17635452 -2.67148554 1.61835921 0 2 C0 1.34 0 0.68 0 0 Z " fill="#CD5A4E" transform="translate(428,300)"/>
<path d="M0 0 C0.33 0 0.66 0 1 0 C1 1.65 1 3.3 1 5 C0.05125 5.309375 -0.8975 5.61875 -1.875 5.9375 C-4.86080408 6.87394742 -4.86080408 6.87394742 -7 8 C-7 8.66 -7 9.32 -7 10 C-8.65 11.32 -10.3 12.64 -12 14 C-6.39 14 -0.78 14 5 14 C5 14.33 5 14.66 5 15 C3.98421875 15.17015625 2.9684375 15.3403125 1.921875 15.515625 C-6.6735916 17.00793717 -14.81837633 18.88562219 -23 22 C-24.216875 22.4125 -25.43375 22.825 -26.6875 23.25 C-29.14293669 24.73292809 -29.14293669 24.73292809 -29.50390625 26.9296875 C-29.73007249 28.94723393 -29.86929217 30.97402857 -30 33 C-30.99 33.495 -30.99 33.495 -32 34 C-32 30.04 -32 26.08 -32 22 C-29.69 22 -27.38 22 -25 22 C-25.20625 21.0925 -25.4125 20.185 -25.625 19.25 C-26.0127245 15.88972103 -25.80411967 14.75924185 -24 12 C-24.99 12 -25.98 12 -27 12 C-27.33 12.66 -27.66 13.32 -28 14 C-27.875 12.1875 -27.875 12.1875 -27 10 C-22.67491106 7.49118708 -18.31724388 6.09024457 -13.5 4.8125 C-12.2315625 4.46832031 -10.963125 4.12414062 -9.65625 3.76953125 C-6.30031649 3.06320764 -3.41284701 2.84726456 0 3 C0 2.01 0 1.02 0 0 Z M-32 14 C-28 15 -28 15 -28 15 Z " fill="#E13328" transform="translate(278,151)"/>
<path d="M0 0 C2.03833424 1.2739589 4.03852126 2.61061923 6 4 C6 4.66 6 5.32 6 6 C6.66 6 7.32 6 8 6 C8 6.66 8 7.32 8 8 C6.02 8 4.04 8 2 8 C1.67 10.31 1.34 12.62 1 15 C2.98 14.01 4.96 13.02 7 12 C7 12.99 7 13.98 7 15 C6.34 15 5.68 15 5 15 C5.3403125 16.8871875 5.3403125 16.8871875 5.6875 18.8125 C6.1995826 22.72231986 6.1995826 22.72231986 4.5625 25 C4.046875 25.33 3.53125 25.66 3 26 C2.67 25.67 2.34 25.34 2 25 C-0.69654854 24.92680379 -3.36691458 24.90757463 -6.0625 24.9375 C-6.82111328 24.94201172 -7.57972656 24.94652344 -8.36132812 24.95117188 C-10.24091871 24.9629932 -12.12046899 24.98092922 -14 25 C-10.43120445 22.62080296 -7.54088923 22.25681487 -3.375 21.5625 C-0.75371613 21.08715001 -0.75371613 21.08715001 2 19 C1.01 18.21625 0.02 17.4325 -1 16.625 C-1.99 15.75875 -2.98 14.8925 -4 14 C-4 13.34 -4 12.68 -4 12 C-4.598125 11.7525 -5.19625 11.505 -5.8125 11.25 C-8.28647521 9.83629988 -9.43370255 8.34944617 -11 6 C-9.35 5.67 -7.7 5.34 -6 5 C-5.67 6.98 -5.34 8.96 -5 11 C-4.01 10.67 -3.02 10.34 -2 10 C-2 9.34 -2 8.68 -2 8 C-1.34 7.67 -0.68 7.34 0 7 C-0.33 6.34 -0.66 5.68 -1 5 C-0.34 5 0.32 5 1 5 C0.67 3.35 0.34 1.7 0 0 Z " fill="#DA5149" transform="translate(372,253)"/>
<path d="M0 0 C0.66 0 1.32 0 2 0 C3.02054699 33.32478429 3.02054699 33.32478429 -5 43 C-5.495 41.515 -5.495 41.515 -6 40 C-5.34 40 -4.68 40 -4 40 C-4.33 36.37 -4.66 32.74 -5 29 C-3.68 28.67 -2.36 28.34 -1 28 C-0.67 18.76 -0.34 9.52 0 0 Z " fill="#CD544D" transform="translate(415,168)"/>
<path d="M0 0 C0.99 0.66 1.98 1.32 3 2 C3 2.66 3 3.32 3 4 C3.66 4 4.32 4 5 4 C5 4.99 5 5.98 5 7 C2.525 6.01 2.525 6.01 0 5 C-0.25394531 5.99 -0.50789063 6.98 -0.76953125 8 C-2.53817043 14.81167419 -4.33547575 21.47191558 -7 28 C-7.33 28 -7.66 28 -8 28 C-7.33644956 21.25390382 -6.28134207 14.65551466 -5 8 C-4.34 8 -3.68 8 -3 8 C-3.061875 7.05125 -3.12375 6.1025 -3.1875 5.125 C-3.125625 4.09375 -3.06375 3.0625 -3 2 C-2.01 1.34 -1.02 0.68 0 0 Z " fill="#D64B43" transform="translate(410,105)"/>
<path d="M0 0 C4.72333829 -0.23040675 8.56373902 0.32593925 13 2 C15.81176932 4.59149246 16.00073015 6.00969636 16.29296875 9.890625 C16.27314945 11.34404009 16.23754845 12.79731167 16.1875 14.25 C16.16719727 15.36761719 16.16719727 15.36761719 16.14648438 16.5078125 C16.11127204 18.33885416 16.05746851 20.16952169 16 22 C15.01 22 14.02 22 13 22 C13.96355353 12.58997722 13.96355353 12.58997722 15 8 C14.28457031 7.72414063 13.56914062 7.44828125 12.83203125 7.1640625 C10.04261145 6.01751478 7.37709642 4.73772885 4.6875 3.375 C3.80449219 2.92898437 2.92148437 2.48296875 2.01171875 2.0234375 C1.34785156 1.68570313 0.68398438 1.34796875 0 1 C0 0.67 0 0.34 0 0 Z " fill="#DE6A65" transform="translate(383,91)"/>
<path d="M0 0 C0.99 1.32 1.98 2.64 3 4 C2.34 4 1.68 4 1 4 C0.67 4.66 0.34 5.32 0 6 C-0.66 5.67 -1.32 5.34 -2 5 C-1.773125 5.598125 -1.54625 6.19625 -1.3125 6.8125 C-1 9 -1 9 -2.25 10.6875 C-4 12 -4 12 -7 13 C-8.22520264 16.00847418 -8.22520264 16.00847418 -9 19 C-9.99 19 -10.98 19 -12 19 C-11.01 16.36 -10.02 13.72 -9 11 C-8.34 11 -7.68 11 -7 11 C-6.89816406 10.41734375 -6.79632813 9.8346875 -6.69140625 9.234375 C-5.88482847 6.62780725 -4.75842991 5.26464586 -2.9375 3.25 C-2.38964844 2.63640625 -1.84179688 2.0228125 -1.27734375 1.390625 C-0.85582031 0.93171875 -0.43429688 0.4728125 0 0 Z " fill="#DC5349" transform="translate(237,73)"/>
<path d="M0 0 C-3.89495244 3.89495244 -10.08685548 3.07655834 -15.3125 3.125 C-23.8909228 3.06947623 -32.4407127 2.54344681 -41 2 C-41 1.67 -41 1.34 -41 1 C-36.92903862 0.8551177 -32.85799505 0.71282555 -28.78686523 0.57275391 C-27.40695863 0.52493298 -26.02707478 0.47645008 -24.6472168 0.42724609 C-16.42798562 0.13466177 -8.22471701 -0.07794914 0 0 Z " fill="#D86D66" transform="translate(324,163)"/>
<path d="M0 0 C0.495 0.99 0.495 0.99 1 2 C0.27820557 2.05534912 -0.44358887 2.11069824 -1.18725586 2.16772461 C-4.43772168 2.4196154 -7.68759621 2.67846301 -10.9375 2.9375 C-12.07380859 3.02451172 -13.21011719 3.11152344 -14.38085938 3.20117188 C-15.46044922 3.28818359 -16.54003906 3.37519531 -17.65234375 3.46484375 C-18.65257568 3.543396 -19.65280762 3.62194824 -20.68334961 3.70288086 C-22.95853115 3.75472794 -22.95853115 3.75472794 -24 5 C-25.84891946 5.23363881 -27.70488031 5.41303635 -29.5625 5.5625 C-31.08037109 5.68818359 -31.08037109 5.68818359 -32.62890625 5.81640625 C-33.41136719 5.87699219 -34.19382812 5.93757813 -35 6 C-24.79555892 -0.80296072 -11.82079301 -0.31900191 0 0 Z " fill="#D86A63" transform="translate(352,108)"/>
<path d="M0 0 C0.33 0 0.66 0 1 0 C2.20622753 3.29702191 3.03432744 6.25745578 3.5 9.75 C3.68415804 13.07840049 3.68415804 13.07840049 6 15 C6.125 17.625 6.125 17.625 6 20 C6.99 20.33 7.98 20.66 9 21 C9.625 23.375 9.625 23.375 10 26 C9.34 26.66 8.68 27.32 8 28 C3.02751069 18.47721386 -0.44283301 10.8494087 0 0 Z " fill="#DC6762" transform="translate(222,253)"/>
<path d="M0 0 C0.33 0 0.66 0 1 0 C1 1.65 1 3.3 1 5 C0.05125 5.309375 -0.8975 5.61875 -1.875 5.9375 C-4.86080408 6.87394742 -4.86080408 6.87394742 -7 8 C-7 8.66 -7 9.32 -7 10 C-9.5 11.625 -9.5 11.625 -12 13 C-11.34 11.35 -10.68 9.7 -10 8 C-13.63 8 -17.26 8 -21 8 C-21 7.67 -21 7.34 -21 7 C-18.62734939 6.32382476 -16.25244645 5.65891774 -13.875 5 C-13.20984375 4.80921875 -12.5446875 4.6184375 -11.859375 4.421875 C-7.8013795 3.30791545 -4.20314026 2.79049768 0 3 C0 2.01 0 1.02 0 0 Z " fill="#DF5346" transform="translate(278,151)"/>
<path d="M0 0 C0.33 0 0.66 0 1 0 C1.1875 2.875 1.1875 2.875 1 6 C0.01 6.66 -0.98 7.32 -2 8 C-3.53177639 9.76869114 -4.9638833 11.59634098 -6.40234375 13.44140625 C-8.23730952 15.23150733 -9.50048186 15.60590751 -12 16 C-12 16.66 -12 17.32 -12 18 C-13.32 17.67 -14.64 17.34 -16 17 C-15.34 17 -14.68 17 -14 17 C-13.67 16.01 -13.34 15.02 -13 14 C-11.328125 12.421875 -11.328125 12.421875 -9.25 10.75 C-5.39730067 7.50598566 -2.80318609 4.16230662 0 0 Z " fill="#DA5C56" transform="translate(422,238)"/>
<path d="M0 0 C6.74437659 -0.02537362 13.48874084 -0.04287685 20.2331543 -0.05493164 C22.52710429 -0.05995761 24.82105108 -0.06677938 27.11499023 -0.07543945 C30.41390778 -0.08758096 33.71278293 -0.09324572 37.01171875 -0.09765625 C38.03585373 -0.10281754 39.05998871 -0.10797882 40.11515808 -0.11329651 C41.07577652 -0.11337204 42.03639496 -0.11344757 43.02612305 -0.11352539 C44.28854073 -0.11685631 44.28854073 -0.11685631 45.57646179 -0.12025452 C48.13426382 0.00666209 50.50454611 0.43812412 53 1 C49.91190305 2.76462683 48.76687864 3 45 3 C45 2.34 45 1.68 45 1 C30.15 1 15.3 1 0 1 C0 0.67 0 0.34 0 0 Z " fill="#D2453D" transform="translate(376,58)"/>
<path d="M0 0 C4.40328349 5.21870636 8.0199108 10.86210987 11 17 C10.34 17.33 9.68 17.66 9 18 C6.48916886 16.74458443 6.12874554 15.49936512 5 13 C4.01 13 3.02 13 2 13 C1.87625 12.030625 1.7525 11.06125 1.625 10.0625 C1.41875 9.051875 1.2125 8.04125 1 7 C0.34 6.67 -0.32 6.34 -1 6 C-0.34 6 0.32 6 1 6 C0.67 4.02 0.34 2.04 0 0 Z " fill="#DD5148" transform="translate(258,224)"/>
<path d="M0 0 C-2.29935195 2.29935195 -3.64993372 2.60611859 -6.75 3.4375 C-12.68507513 5.04541157 -12.68507513 5.04541157 -18 8 C-18.7132128 10.69496441 -18.81909833 13.19602412 -19 16 C-19.66 16.33 -20.32 16.66 -21 17 C-21 13.04 -21 9.08 -21 5 C-18.69 5 -16.38 5 -14 5 C-13.67 4.01 -13.34 3.02 -13 2 C-8.56971812 0.34950283 -4.70949382 -0.22973141 0 0 Z " fill="#DD665F" transform="translate(267,168)"/>
<path d="M0 0 C0.99 0.33 1.98 0.66 3 1 C3.103125 1.763125 3.20625 2.52625 3.3125 3.3125 C4.05600892 6.21894395 4.84858032 7.03566029 7 9 C7 9.66 7 10.32 7 11 C7.66 11 8.32 11 9 11 C12 16.75 12 16.75 12 19 C9.625 18.3125 9.625 18.3125 7 17 C5.875 14.5 5.875 14.5 5 12 C4.01 11.34 3.02 10.68 2 10 C2.66 10 3.32 10 4 10 C3.71125 9.44570312 3.4225 8.89140625 3.125 8.3203125 C2.568125 7.23363281 2.568125 7.23363281 2 6.125 C1.62875 5.40570313 1.2575 4.68640625 0.875 3.9453125 C0 2 0 2 0 0 Z " fill="#DC5C54" transform="translate(399,132)"/>
<path d="M0 0 C0.33 0.66 0.66 1.32 1 2 C0.01 2.33 -0.98 2.66 -2 3 C-2.53625 3.763125 -3.0725 4.52625 -3.625 5.3125 C-6.47948373 8.54257369 -9.11266897 9.58179576 -13.07421875 11.10546875 C-15.17972547 11.84046184 -15.17972547 11.84046184 -16 14 C-18.0625 14.625 -18.0625 14.625 -20 15 C-16.55975414 7.00142838 -7.48170782 3.46488928 0 0 Z " fill="#DB6C65" transform="translate(315,114)"/>
<path d="M0 0 C0.33 0 0.66 0 1 0 C1.125 7.625 1.125 7.625 0 11 C-0.15145099 13.2825699 -0.24886979 15.56887706 -0.31640625 17.85546875 C-0.33718735 18.51710526 -0.35796844 19.17874176 -0.37937927 19.86042786 C-0.44464727 21.96934852 -0.50365344 24.07839135 -0.5625 26.1875 C-0.60570689 27.61915315 -0.64932188 29.05079404 -0.69335938 30.48242188 C-0.80030506 33.98815154 -0.90163641 37.49401786 -1 41 C-1.33 41 -1.66 41 -2 41 C-2.04970487 36.28606679 -2.085863 31.5722886 -2.10986328 26.8581543 C-2.11987623 25.25689026 -2.1334906 23.65564429 -2.15087891 22.05444336 C-2.17533565 19.74328124 -2.18653029 17.43236238 -2.1953125 15.12109375 C-2.20563507 14.41351425 -2.21595764 13.70593475 -2.22659302 12.97691345 C-2.22764468 8.24165735 -1.46788729 4.44683503 0 0 Z " fill="#C6352E" transform="translate(224,93)"/>
<path d="M0 0 C3.16115776 1.36983503 3.9927092 1.9890638 6 5 C6.99 5.33 7.98 5.66 9 6 C9 6.66 9 7.32 9 8 C9.99 8 10.98 8 12 8 C11.67 9.32 11.34 10.64 11 12 C8 12 8 12 6.46484375 10.64453125 C3.6304269 7.24468086 1.30685916 4.31263524 0 0 Z " fill="#D84F46" transform="translate(381,224)"/>
<path d="M0 0 C0.33 0.33 0.66 0.66 1 1 C2.51928038 1.07179964 4.04167482 1.08392007 5.5625 1.0625 C6.38878906 1.05347656 7.21507812 1.04445313 8.06640625 1.03515625 C9.02353516 1.01775391 9.02353516 1.01775391 10 1 C10.33 1.66 10.66 2.32 11 3 C3.49316495 4.12602526 3.49316495 4.12602526 1.15039062 3.52734375 C-1.12306476 2.96982063 -3.21032916 2.79410605 -5.546875 2.68359375 C-6.39121094 2.64169922 -7.23554688 2.59980469 -8.10546875 2.55664062 C-8.97816406 2.51732422 -9.85085938 2.47800781 -10.75 2.4375 C-11.63816406 2.39431641 -12.52632813 2.35113281 -13.44140625 2.30664062 C-15.62745963 2.20086385 -17.81362089 2.09877454 -20 2 C-20 1.67 -20 1.34 -20 1 C-13.30803817 0.29953297 -6.73109922 -0.21713223 0 0 Z " fill="#CC3F35" transform="translate(356,81)"/>
<path d="M0 0 C0.96486328 0.27263672 0.96486328 0.27263672 1.94921875 0.55078125 C8.40888268 2.34769204 14.88066372 3.88691468 21.4453125 5.25390625 C22.70988281 5.62322266 22.70988281 5.62322266 24 6 C24.33 6.66 24.66 7.32 25 8 C21.04 8 17.08 8 13 8 C13 7.34 13 6.68 13 6 C12.39671875 5.87882812 11.7934375 5.75765625 11.171875 5.6328125 C10.37265625 5.46523438 9.5734375 5.29765625 8.75 5.125 C7.96109375 4.96257812 7.1721875 4.80015625 6.359375 4.6328125 C4.03168856 4.00849925 2.10968048 3.15161458 0 2 C0 1.34 0 0.68 0 0 Z " fill="#D54C44" transform="translate(310,271)"/>
<path d="M0 0 C0 0.66 0 1.32 0 2 C-1.98 2.99 -1.98 2.99 -4 4 C-3.67 4.99 -3.34 5.98 -3 7 C-3.95712891 7.07347656 -3.95712891 7.07347656 -4.93359375 7.1484375 C-5.75988281 7.22320312 -6.58617187 7.29796875 -7.4375 7.375 C-8.26121094 7.44460937 -9.08492187 7.51421875 -9.93359375 7.5859375 C-10.61550781 7.72257812 -11.29742187 7.85921875 -12 8 C-12.33 8.66 -12.66 9.32 -13 10 C-14.32 9.67 -15.64 9.34 -17 9 C-3.89320388 0 -3.89320388 0 0 0 Z " fill="#D5544D" transform="translate(257,61)"/>
<path d="M0 0 C0.66 0.99 1.32 1.98 2 3 C1.125 6.1875 1.125 6.1875 0 9 C-0.66 9 -1.32 9 -2 9 C-2 11.31 -2 13.62 -2 16 C-3.98 16.33 -5.96 16.66 -8 17 C-5.36 11.39 -2.72 5.78 0 0 Z " fill="#D84E47" transform="translate(433,219)"/>
<path d="M0 0 C0.35050464 5.841744 0.16727335 9.8531808 -3 15 C-3.66 14.67 -4.32 14.34 -5 14 C-5 13.34 -5 12.68 -5 12 C-4.34 12 -3.68 12 -3 12 C-3.33 8.37 -3.66 4.74 -4 1 C-2 0 -2 0 0 0 Z " fill="#D8483D" transform="translate(414,196)"/>
<path d="M0 0 C0.66 0.33 1.32 0.66 2 1 C0.77801556 2.58888299 -0.45294475 4.17086464 -1.6875 5.75 C-2.71423828 7.07257813 -2.71423828 7.07257813 -3.76171875 8.421875 C-5.98461943 10.98228416 -8.29250406 12.97056346 -11 15 C-11 13.35 -11 11.7 -11 10 C-9.35 9.67 -7.7 9.34 -6 9 C-6 8.01 -6 7.02 -6 6 C-5.34 6 -4.68 6 -4 6 C-4 5.34 -4 4.68 -4 4 C-3.34 4 -2.68 4 -2 4 C-2 3.34 -2 2.68 -2 2 C-1.34 2 -0.68 2 0 2 C0 1.34 0 0.68 0 0 Z " fill="#D96A63" transform="translate(359,134)"/>
<path d="M0 0 C5.62040742 5.17927079 8.76960952 12.81318624 11 20 C10.67 20.99 10.34 21.98 10 23 C9.67 23 9.34 23 9 23 C9 21.35 9 19.7 9 18 C8.34 18 7.68 18 7 18 C6.81824219 17.37351562 6.63648438 16.74703125 6.44921875 16.1015625 C6.07216797 14.87566406 6.07216797 14.87566406 5.6875 13.625 C5.32205078 12.40683594 5.32205078 12.40683594 4.94921875 11.1640625 C4.08631815 8.66815371 4.08631815 8.66815371 1 7 C0.3125 3.375 0.3125 3.375 0 0 Z " fill="#D86A63" transform="translate(456,77)"/>
<path d="M0 0 C-1.98 0.99 -3.96 1.98 -6 3 C-5.67 7.29 -5.34 11.58 -5 16 C-8.40858586 12.59141414 -8.93008394 7.67798535 -9.125 3 C-9.08375 2.34 -9.0425 1.68 -9 1 C-5.57367167 -0.61798838 -3.61944899 -1.34053666 0 0 Z " fill="#D4665F" transform="translate(283,191)"/>
<path d="M0 0 C0.99 0.33 1.98 0.66 3 1 C2.67 1.66 2.34 2.32 2 3 C2.66 3 3.32 3 4 3 C4 4.32 4 5.64 4 7 C5.65 6.67 7.3 6.34 9 6 C9 7.98 9 9.96 9 12 C8.01 12.33 7.02 12.66 6 13 C4.99491199 11.21118264 3.99607264 9.41885304 3 7.625 C2.1646875 6.12839844 2.1646875 6.12839844 1.3125 4.6015625 C0 2 0 2 0 0 Z " fill="#E1675F" transform="translate(374,211)"/>
<path d="M0 0 C0.66 0.33 1.32 0.66 2 1 C0.54955729 5.10958767 -1.51110752 8.43258745 -4 12 C-5.5625 10.1875 -5.5625 10.1875 -7 8 C-6.67 7.01 -6.34 6.02 -6 5 C-5.01 5.33 -4.02 5.66 -3 6 C-2.67 4.68 -2.34 3.36 -2 2 C-1.34 2 -0.68 2 0 2 C0 1.34 0 0.68 0 0 Z " fill="#DC5750" transform="translate(461,273)"/>
<path d="M0 0 C1.32 0.99 2.64 1.98 4 3 C-2.07439825 7.90153173 -2.07439825 7.90153173 -5.9375 8.3125 C-6.9584375 8.1578125 -6.9584375 8.1578125 -8 8 C-7.34 7.67 -6.68 7.34 -6 7 C-5.34786708 4.97536745 -5.34786708 4.97536745 -5 3 C-3.35 3.33 -1.7 3.66 0 4 C0 2.68 0 1.36 0 0 Z " fill="#DA4741" transform="translate(336,152)"/>
<path d="M0 0 C1.98 0 3.96 0 6 0 C6 1.65 6 3.3 6 5 C6.99 5 7.98 5 9 5 C10.6875 7 10.6875 7 12 9 C8 9 8 9 5.859375 7.28515625 C5.16328125 6.55167969 4.4671875 5.81820313 3.75 5.0625 C3.04359375 4.33160156 2.3371875 3.60070312 1.609375 2.84765625 C0 1 0 1 0 0 Z " fill="#D96258" transform="translate(232,283)"/>
<path d="M0 0 C1.32 0.66 2.64 1.32 4 2 C4 2.66 4 3.32 4 4 C4.804375 4.28875 5.60875 4.5775 6.4375 4.875 C9 6 9 6 10 8 C8.35 8 6.7 8 5 8 C5 7.34 5 6.68 5 6 C3.05396726 5.40929986 3.05396726 5.40929986 1 5 C0.67 5.33 0.34 5.66 0 6 C-0.99 5.01 -1.98 4.02 -3 3 C-2.01 2.67 -1.02 2.34 0 2 C0 1.34 0 0.68 0 0 Z " fill="#D7524E" transform="translate(283,255)"/>
<path d="M0 0 C1.32 0.33 2.64 0.66 4 1 C4.919102 4.24388943 5.28279255 7.39351063 5.5625 10.75 C5.64628906 11.73484375 5.73007812 12.7196875 5.81640625 13.734375 C5.87699219 14.48203125 5.93757813 15.2296875 6 16 C5.67 16 5.34 16 5 16 C4.80664062 15.39671875 4.61328125 14.7934375 4.4140625 14.171875 C4.15367187 13.37265625 3.89328125 12.5734375 3.625 11.75 C3.36976563 10.96109375 3.11453125 10.1721875 2.8515625 9.359375 C2.05887299 6.99751144 2.05887299 6.99751144 0.8984375 4.890625 C0 3 0 3 0 0 Z " fill="#E38281" transform="translate(432,137)"/>
<path d="M0 0 C5.96652354 1.57013777 10.82909025 4.75029782 16 8 C15.01 8.33 14.02 8.66 13 9 C11.31791365 8.02616054 9.65261839 7.02304948 8 6 C6.700625 5.814375 6.700625 5.814375 5.375 5.625 C3 5 3 5 1.1875 2.4375 C0.795625 1.633125 0.40375 0.82875 0 0 Z " fill="#D75D58" transform="translate(431,60)"/>
<path d="M0 0 C1.89693861 0.28438952 3.79252027 0.57783792 5.6875 0.875 C6.74324219 1.03742188 7.79898437 1.19984375 8.88671875 1.3671875 C11.79794914 1.95893069 14.28955607 2.8031806 17 4 C15.4375 5.125 15.4375 5.125 13 6 C9.25 5.125 9.25 5.125 6 4 C6 3.34 6 2.68 6 2 C4.02 2 2.04 2 0 2 C0 1.34 0 0.68 0 0 Z " fill="#D65B55" transform="translate(304,191)"/>
<path d="M0 0 C0.99 0.66 1.98 1.32 3 2 C3 2.66 3 3.32 3 4 C3.66 4 4.32 4 5 4 C5 4.99 5 5.98 5 7 C2.525 6.01 2.525 6.01 0 5 C-0.66 6.32 -1.32 7.64 -2 9 C-2.33 6.69 -2.66 4.38 -3 2 C-2.01 1.34 -1.02 0.68 0 0 Z " fill="#DB5D56" transform="translate(410,105)"/>
<path d="M0 0 C3.62276315 1.3255581 6.63505348 2.94346955 9.8125 5.125 C10.60269531 5.66382813 11.39289063 6.20265625 12.20703125 6.7578125 C12.79871094 7.16773438 13.39039063 7.57765625 14 8 C13.01 8.495 13.01 8.495 12 9 C9.98276656 8.03523618 7.98387708 7.03161608 6 6 C5.2575 5.87625 4.515 5.7525 3.75 5.625 C2 5 2 5 0.75 2.4375 C0.5025 1.633125 0.255 0.82875 0 0 Z " fill="#D8645D" transform="translate(326,198)"/>
<path d="M0 0 C2.31 0 4.62 0 7 0 C3.93698998 3.06301002 0.2091515 3.42668454 -4 4 C-7.0625 3.625 -7.0625 3.625 -9 3 C-8.67 2.34 -8.34 1.68 -8 1 C-5.36 1.33 -2.72 1.66 0 2 C0 1.34 0 0.68 0 0 Z " fill="#DE6D64" transform="translate(428,300)"/>
<path d="M0 0 C0.33 0 0.66 0 1 0 C1.09945415 6.11090483 1.0712828 11.97403427 0 18 C-0.99 17.67 -1.98 17.34 -3 17 C-2.01 11.39 -1.02 5.78 0 0 Z " fill="#DA645C" transform="translate(441,191)"/>
<path d="M0 0 C0 3.04561282 -0.4373184 5.69825402 -1 8.6875 C-1.185625 9.68136719 -1.37125 10.67523438 -1.5625 11.69921875 C-1.706875 12.45847656 -1.85125 13.21773437 -2 14 C-3.32 14.33 -4.64 14.66 -6 15 C-5.57388649 13.24719267 -5.13360733 11.49782565 -4.6875 9.75 C-4.44386719 8.77546875 -4.20023437 7.8009375 -3.94921875 6.796875 C-3.00347644 4.01024335 -1.89291287 2.22695632 0 0 Z " fill="#D96862" transform="translate(377,153)"/>
<path d="M0 0 C0.33 0.66 0.66 1.32 1 2 C0.22265625 3.9453125 0.22265625 3.9453125 -0.9375 6.125 C-1.31777344 6.84945312 -1.69804687 7.57390625 -2.08984375 8.3203125 C-2.54037109 9.15175781 -2.54037109 9.15175781 -3 10 C-3.99 10 -4.98 10 -6 10 C-6.33 9.34 -6.66 8.68 -7 8 C-6.34 8 -5.68 8 -5 8 C-4.731875 6.865625 -4.46375 5.73125 -4.1875 4.5625 C-3.795625 3.386875 -3.40375 2.21125 -3 1 C-2.01 0.67 -1.02 0.34 0 0 Z " fill="#DD6058" transform="translate(367,121)"/>
<path d="M0 0 C1.98 0 3.96 0 6 0 C4.60474959 2.79050082 2.69412117 3.46924934 0 5 C-0.928125 5.556875 -1.85625 6.11375 -2.8125 6.6875 C-3.534375 7.120625 -4.25625 7.55375 -5 8 C-5 6.68 -5 5.36 -5 4 C-4.01 4 -3.02 4 -2 4 C-2 3.34 -2 2.68 -2 2 C-1.34 2 -0.68 2 0 2 C0 1.34 0 0.68 0 0 Z " fill="#DD5451" transform="translate(286,99)"/>
<path d="M0 0 C0.33 0 0.66 0 1 0 C1.042721 1.66611905 1.04063832 3.33382885 1 5 C0 6 0 6 -2.06640625 6.09765625 C-2.89011719 6.08605469 -3.71382813 6.07445312 -4.5625 6.0625 C-5.38878906 6.05347656 -6.21507812 6.04445312 -7.06640625 6.03515625 C-7.70449219 6.02355469 -8.34257812 6.01195312 -9 6 C-9 5.34 -9 4.68 -9 4 C-4.545 3.505 -4.545 3.505 0 3 C0 2.01 0 1.02 0 0 Z " fill="#DB6A63" transform="translate(278,151)"/>
<path d="M0 0 C0.33 0.99 0.66 1.98 1 3 C-1.0940195 6.5149613 -3.50689454 9.7589629 -6 13 C-6 10.69 -6 8.38 -6 6 C-4.68 5.67 -3.36 5.34 -2 5 C-2 4.01 -2 3.02 -2 2 C-1.34 2 -0.68 2 0 2 C0 1.34 0 0.68 0 0 Z " fill="#DA645A" transform="translate(409,211)"/>
<path d="M0 0 C1.17539996 0.92652701 2.34010577 1.86663387 3.5 2.8125 C4.1496875 3.33457031 4.799375 3.85664063 5.46875 4.39453125 C7 6 7 6 7 9 C6.34 8.67 5.68 8.34 5 8 C5 7.34 5 6.68 5 6 C2.69 5.67 0.38 5.34 -2 5 C-1.34 3.35 -0.68 1.7 0 0 Z " fill="#D95049" transform="translate(340,207)"/>
<path d="M0 0 C0.33 0.66 0.66 1.32 1 2 C1.66 2 2.32 2 3 2 C1.79618552 4.49361571 0.54571278 6.68143083 -1 9 C-1.66 9 -2.32 9 -3 9 C-3.75 6.75 -3.75 6.75 -4 4 C-2.0625 1.6875 -2.0625 1.6875 0 0 Z " fill="#DC5D55" transform="translate(269,114)"/>
<path d="M0 0 C1.17539996 0.92652701 2.34010577 1.86663387 3.5 2.8125 C4.1496875 3.33457031 4.799375 3.85664062 5.46875 4.39453125 C7 6 7 6 7 9 C5.35 9 3.7 9 2 9 C1.855625 8.2575 1.71125 7.515 1.5625 6.75 C1.09800774 4.47914894 0.57094564 2.24539967 0 0 Z " fill="#DC615C" transform="translate(448,69)"/>
<path d="M0 0 C4.62 0 9.24 0 14 0 C14 0.33 14 0.66 14 1 C9.38 1.66 4.76 2.32 0 3 C0 2.01 0 1.02 0 0 Z " fill="#E4807A" transform="translate(269,165)"/>
<path d="M0 0 C2.475 0.495 2.475 0.495 5 1 C5.33 2.32 5.66 3.64 6 5 C6.66 5 7.32 5 8 5 C8 6.65 8 8.3 8 10 C5.57910566 7.09492679 3.68426478 4.36852957 2 1 C1.34 0.67 0.68 0.34 0 0 Z " fill="#DB6E68" transform="translate(415,113)"/>
<path d="M0 0 C0.33 0 0.66 0 1 0 C1 3.3 1 6.6 1 10 C0.01 10 -0.98 10 -2 10 C-1.85950482 8.52031676 -1.71245174 7.04125484 -1.5625 5.5625 C-1.48128906 4.73878906 -1.40007812 3.91507812 -1.31640625 3.06640625 C-1 1 -1 1 0 0 Z " fill="#D5544B" transform="translate(398,103)"/>
<path d="M0 0 C0.33 0 0.66 0 1 0 C1.20674944 5.78898419 0.59162079 10.42932723 -1 16 C-1.33 16 -1.66 16 -2 16 C-2.2358396 10.22192976 -1.86783046 5.48675196 0 0 Z " fill="#D76761" transform="translate(224,93)"/>
<path d="M0 0 C2.00720923 0.28674418 4.0085944 0.61866701 6 1 C4.625 3.5 4.625 3.5 3 6 C2.34 6 1.68 6 1 6 C0.34 4.35 -0.32 2.7 -1 1 C-0.67 0.67 -0.34 0.34 0 0 Z " fill="#DC5445" transform="translate(394,226)"/>
<path d="M0 0 C5 2 5 2 6.375 3.875 C7 6 7 6 6 10 C4.02 6.7 2.04 3.4 0 0 Z " fill="#DC6762" transform="translate(423,123)"/>
<path d="M0 0 C0.33 0.66 0.66 1.32 1 2 C0.01 2.33 -0.98 2.66 -2 3 C-3.38576923 4.62332967 -4.72641268 6.28724465 -6 8 C-7.32 7.67 -8.64 7.34 -10 7 C-8.68 6.67 -7.36 6.34 -6 6 C-6 5.01 -6 4.02 -6 3 C-4.02 2.01 -2.04 1.02 0 0 Z " fill="#D8584F" transform="translate(315,114)"/>
<path d="M0 0 C0.33 0.99 0.66 1.98 1 3 C0.34 3 -0.32 3 -1 3 C-0.67 4.65 -0.34 6.3 0 8 C-1.32 7.67 -2.64 7.34 -4 7 C-4.33 5.68 -4.66 4.36 -5 3 C-3.35 2.01 -1.7 1.02 0 0 Z " fill="#E44841" transform="translate(378,265)"/>
<path d="M0 0 C3.63 0.66 7.26 1.32 11 2 C11 2.99 11 3.98 11 5 C9.35153231 4.55123384 7.70626545 4.09069512 6.0625 3.625 C5.14597656 3.36976563 4.22945313 3.11453125 3.28515625 2.8515625 C1 2 1 2 0 0 Z " fill="#DD736B" transform="translate(313,245)"/>
<path d="M0 0 C0.33 0 0.66 0 1 0 C1.3125 2.8125 1.3125 2.8125 1 6 C-1.375 7.9375 -1.375 7.9375 -4 9 C-4.66 8.67 -5.32 8.34 -6 8 C-5.02471263 6.66382648 -4.04466681 5.3311249 -3.0625 4 C-2.24458984 2.88625 -2.24458984 2.88625 -1.41015625 1.75 C-0.94480469 1.1725 -0.47945313 0.595 0 0 Z " fill="#DF6863" transform="translate(422,238)"/>
<path d="M0 0 C2.31 0.33 4.62 0.66 7 1 C5.35 2.65 3.7 4.3 2 6 C1.34 4.02 0.68 2.04 0 0 Z " fill="#DD5A50" transform="translate(449,284)"/>
<path d="M0 0 C1.79379098 0.44994757 3.58498928 0.91024143 5.375 1.375 C6.37273437 1.63023437 7.37046875 1.88546875 8.3984375 2.1484375 C11 3 11 3 13 5 C11.58249437 4.88490339 10.16598831 4.75746342 8.75 4.625 C7.96109375 4.55539062 7.1721875 4.48578125 6.359375 4.4140625 C3.914123 3.98492887 2.15163097 3.21399362 0 2 C0 1.34 0 0.68 0 0 Z " fill="#DB716D" transform="translate(310,271)"/>
<path d="M0 0 C0.33 2.31 0.66 4.62 1 7 C-0.98 5.35 -2.96 3.7 -5 2 C-2 0 -2 0 0 0 Z " fill="#DF5952" transform="translate(366,258)"/>
<path d="M0 0 C4.875 4.625 4.875 4.625 6 8 C5.01 8.495 5.01 8.495 4 9 C1.43135272 7.71567636 1.053461 6.63365249 0 4 C0 2.68 0 1.36 0 0 Z " fill="#D55653" transform="translate(263,233)"/>
<path d="M0 0 C1.12377697 3.30435084 0.89554742 5.0506862 -0.4375 8.25 C-0.72496094 8.95640625 -1.01242187 9.6628125 -1.30859375 10.390625 C-1.53675781 10.92171875 -1.76492188 11.4528125 -2 12 C-2.33 12 -2.66 12 -3 12 C-2.88541307 10.56163249 -2.75790884 9.12429034 -2.625 7.6875 C-2.55539062 6.88699219 -2.48578125 6.08648437 -2.4140625 5.26171875 C-2 3 -2 3 0 0 Z " fill="#D65F5B" transform="translate(405,121)"/>
<path d="M0 0 C-0.33 1.32 -0.66 2.64 -1 4 C-1.99 4 -2.98 4 -4 4 C-4.33 4.66 -4.66 5.32 -5 6 C-5.66 6 -6.32 6 -7 6 C-6.75 4.125 -6.75 4.125 -6 2 C-3.85331506 0.61504198 -2.56128588 0 0 0 Z " fill="#D53D2F" transform="translate(430,234)"/>
<path d="M0 0 C0.66 0.33 1.32 0.66 2 1 C0.6875 2.5 0.6875 2.5 -1 4 C-1.99 4 -2.98 4 -4 4 C-4.33 4.66 -4.66 5.32 -5 6 C-4.75 4.125 -4.75 4.125 -4 2 C-2.0625 0.6875 -2.0625 0.6875 0 0 Z M-9 6 C-5 7 -5 7 -5 7 Z " fill="#DD534D" transform="translate(255,159)"/>
<path d="M0 0 C0.66 0 1.32 0 2 0 C1.75 3.375 1.75 3.375 1 7 C-0.98 7.99 -0.98 7.99 -3 9 C-2.01 6.03 -1.02 3.06 0 0 Z " fill="#D6695A" transform="translate(228,84)"/>
<path d="M0 0 C0.33 0 0.66 0 1 0 C2.42258812 3.82320557 3.24042276 6.91281305 3 11 C2.01 10.34 1.02 9.68 0 9 C-0.29296875 6.8359375 -0.29296875 6.8359375 -0.1875 4.375 C-0.16042969 3.55773437 -0.13335937 2.74046875 -0.10546875 1.8984375 C-0.05326172 0.95871094 -0.05326172 0.95871094 0 0 Z " fill="#D45347" transform="translate(222,253)"/>
<path d="M0 0 C2.475 0.495 2.475 0.495 5 1 C4.67 1.99 4.34 2.98 4 4 C4.66 4 5.32 4 6 4 C6.33 4.99 6.66 5.98 7 7 C6.34 7 5.68 7 5 7 C5 6.34 5 5.68 5 5 C4.360625 4.731875 3.72125 4.46375 3.0625 4.1875 C1 3 1 3 0 0 Z " fill="#DE7564" transform="translate(290,227)"/>
<path d="M0 0 C0.33 0 0.66 0 1 0 C0.75 3.375 0.75 3.375 0 7 C-2.0625 8.4375 -2.0625 8.4375 -4 9 C-1.125 2.25 -1.125 2.25 0 0 Z " fill="#DE6B67" transform="translate(388,135)"/>
<path d="M0 0 C0.99 0 1.98 0 3 0 C3 0.66 3 1.32 3 2 C2.01 2 1.02 2 0 2 C0 1.34 0 0.68 0 0 Z M-1 2 C-0.01 3.32 0.98 4.64 2 6 C1.01 6.495 1.01 6.495 0 7 C-0.99 6.67 -1.98 6.34 -3 6 C-3 5.01 -3 4.02 -3 3 C-2.34 2.67 -1.68 2.34 -1 2 Z " fill="#D94D44" transform="translate(381,84)"/>
<path d="M0 0 C2.64 0.33 5.28 0.66 8 1 C8.33 1.99 8.66 2.98 9 4 C5.17902761 3.46930939 2.93828597 2.50298434 0 0 Z " fill="#D7685F" transform="translate(251,298)"/>
<path d="M0 0 C1.32 0.99 2.64 1.98 4 3 C3.360625 3.12375 2.72125 3.2475 2.0625 3.375 C1.381875 3.58125 0.70125 3.7875 0 4 C-0.33 4.66 -0.66 5.32 -1 6 C-1.66 5.01 -2.32 4.02 -3 3 C-2.01 2.67 -1.02 2.34 0 2 C0 1.34 0 0.68 0 0 Z " fill="#E1584F" transform="translate(283,255)"/>
<path d="M0 0 C2.64 0.66 5.28 1.32 8 2 C8.33 3.32 8.66 4.64 9 6 C8.34 6 7.68 6 7 6 C7 5.34 7 4.68 7 4 C6.401875 3.896875 5.80375 3.79375 5.1875 3.6875 C2.71756736 2.91123545 1.67748765 1.92911079 0 0 Z " fill="#E07E78" transform="translate(303,239)"/>
<path d="M0 0 C0.66 0.99 1.32 1.98 2 3 C1.125 6.1875 1.125 6.1875 0 9 C-0.99 9 -1.98 9 -3 9 C-2.01 6.03 -1.02 3.06 0 0 Z " fill="#DD716F" transform="translate(433,219)"/>
<path d="M0 0 C0.66 0 1.32 0 2 0 C1.67 1.98 1.34 3.96 1 6 C0.01 6 -0.98 6 -2 6 C-2 4.68 -2 3.36 -2 2 C-1.34 2 -0.68 2 0 2 C0 1.34 0 0.68 0 0 Z " fill="#EB2F26" transform="translate(284,206)"/>
<path d="M0 0 C0.66 0.33 1.32 0.66 2 1 C2.75 3.4375 2.75 3.4375 3 6 C2.34 6.66 1.68 7.32 1 8 C-0.42944945 5.64561267 -1.08661261 4.51967567 -0.625 1.75 C-0.41875 1.1725 -0.2125 0.595 0 0 Z " fill="#DA5A51" transform="translate(229,273)"/>
<path d="M0 0 C0.66 0 1.32 0 2 0 C1.34 2.64 0.68 5.28 0 8 C-0.66 8 -1.32 8 -2 8 C-2 6.35 -2 4.7 -2 3 C-1.34 3 -0.68 3 0 3 C0 2.01 0 1.02 0 0 Z " fill="#D4635A" transform="translate(465,263)"/>
<path d="M0 0 C-0.33 1.32 -0.66 2.64 -1 4 C-1.99 4 -2.98 4 -4 4 C-4.33 3.01 -4.66 2.02 -5 1 C-3 0 -3 0 0 0 Z " fill="#DC655E" transform="translate(393,232)"/>
<path d="M0 0 C1.9375 0.3125 1.9375 0.3125 4 1 C4.33 1.99 4.66 2.98 5 4 C3.68 4.33 2.36 4.66 1 5 C0.67 3.35 0.34 1.7 0 0 Z " fill="#DD645F" transform="translate(432,137)"/>
</svg>
